<svg xmlns="http://www.w3.org/2000/svg" width="33.5" height="35" viewBox="0 0 33.5 35">
  <g id="noun_User_882275" transform="translate(-20.5 -17.5)">
    <g id="Group_509" data-name="Group 509" transform="translate(21 18)">
      <path id="Path_878" data-name="Path 878" d="M37.25,970.362a7.98,7.98,0,1,0,0,15.938,7.98,7.98,0,1,0,0-15.938Zm0,1.063a6.916,6.916,0,1,1,0,13.813,6.916,6.916,0,1,1,0-13.813Zm0,16.469c-8.984,0-16.25,6.659-16.25,14.942v1.527h1.121v-1.527c0-7.694,6.729-13.879,15.129-13.879s15.129,6.185,15.129,13.879v1.527H53.5v-1.527c0-8.283-7.266-14.942-16.25-14.942Z" transform="translate(-21 -970.362)" fill="#777" stroke="#000" stroke-width="1"/>
    </g>
  </g>
</svg>
