<svg xmlns="http://www.w3.org/2000/svg" width="21.445" height="23.736" viewBox="0 0 21.445 23.736">
  <g id="adress" transform="translate(-64)">
    <g id="Group_230" data-name="Group 230" transform="translate(64)">
      <g id="Group_229" data-name="Group 229" transform="translate(0)">
        <path id="Path_516" data-name="Path 516" d="M74.722,0C68.8,0,64,3.9,64,8.7c0,4.677,9.924,14.475,10.347,14.889a.563.563,0,0,0,.752,0C75.521,23.178,85.445,13.38,85.445,8.7,85.445,3.9,80.644,0,74.722,0Zm0,22.712c-1.834-1.858-9.748-10.1-9.748-14.009C64.981,4.336,69.342.8,74.722.791S84.464,4.336,84.47,8.7C84.47,12.608,76.556,20.854,74.722,22.712Z" transform="translate(-64)"/>
        <path id="Path_517" data-name="Path 517" d="M141.46,68.042l-6.336-3.956a.579.579,0,0,0-.595,0l-6.336,3.956a.349.349,0,0,0-.088.555.534.534,0,0,0,.386.154h1.462V73.1a.449.449,0,0,0,.487.4h8.773a.449.449,0,0,0,.487-.4V68.751h1.462a.449.449,0,0,0,.487-.4A.375.375,0,0,0,141.46,68.042ZM135.8,72.707h-1.95V70.333h1.95Zm3.412-4.747a.449.449,0,0,0-.487.4v4.352h-1.95V69.937a.449.449,0,0,0-.487-.4h-2.924a.449.449,0,0,0-.487.4v2.769h-1.95V68.355a.449.449,0,0,0-.487-.4h-.517l4.9-3.061,4.9,3.061Z" transform="translate(-124.105 -60.838)"/>
      </g>
    </g>
  </g>
</svg>
