<svg xmlns="http://www.w3.org/2000/svg" width="38" height="38" viewBox="0 0 38 38">
  <g id="Group_535" data-name="Group 535" transform="translate(-17 -96)">
    <g id="Ellipse_149" data-name="Ellipse 149" transform="translate(17 96)" fill="#fff" stroke="#d2d2d2" stroke-width="0.5">
      <circle cx="19" cy="19" r="19" stroke="none"/>
      <circle cx="19" cy="19" r="18.75" fill="none"/>
    </g>
    <g id="notification-bell" transform="translate(-6.514 102.825)">
      <path id="Path_418" data-name="Path 418" d="M53.689,18.9c-2.652-1.11-2.753-5.873-2.755-5.993v-3.2a7.455,7.455,0,0,0-4.91-6.846,3.114,3.114,0,0,0-6.208,0,7.455,7.455,0,0,0-4.91,6.846v3.2c0,.12-.1,4.884-2.755,5.993a.641.641,0,0,0-.4.731.694.694,0,0,0,.688.515h6.723a3.578,3.578,0,0,0,1.045,1.886,3.917,3.917,0,0,0,5.423,0,3.578,3.578,0,0,0,1.045-1.886H53.4a.694.694,0,0,0,.688-.515A.641.641,0,0,0,53.689,18.9ZM50.2,16.619a7.054,7.054,0,0,0,1.233,2.224H34.411a7.054,7.054,0,0,0,1.233-2.224ZM42.92,1.3a1.686,1.686,0,0,1,1.63,1.137,8.673,8.673,0,0,0-3.26,0A1.686,1.686,0,0,1,42.92,1.3ZM36.313,12.912v-3.2A6.385,6.385,0,0,1,42.92,3.59a6.385,6.385,0,0,1,6.607,6.122v3.205a12.648,12.648,0,0,0,.3,2.4H36.016A12.656,12.656,0,0,0,36.313,12.912Zm6.607,8.907a2.442,2.442,0,0,1-2.312-1.672h4.624A2.442,2.442,0,0,1,42.92,21.819Z" fill="#301869"/>
    </g>
  </g>
</svg>
