<svg xmlns="http://www.w3.org/2000/svg" width="28.075" height="29.026" viewBox="0 0 28.075 29.026">
  <g id="notification-bell" transform="translate(-31.737)">
    <g id="Group_158" data-name="Group 158" transform="translate(31.737)">
      <g id="Group_157" data-name="Group 157" transform="translate(0)">
        <path id="Path_418" data-name="Path 418" d="M59.292,23.726c-3.329-1.393-3.455-7.372-3.458-7.523V12.192A9.357,9.357,0,0,0,49.671,3.6a3.908,3.908,0,0,0-7.792,0,9.357,9.357,0,0,0-6.164,8.594V16.2c0,.151-.129,6.13-3.458,7.523a.8.8,0,0,0-.5.918.871.871,0,0,0,.864.646H41.06a4.492,4.492,0,0,0,1.311,2.367,4.917,4.917,0,0,0,6.807,0A4.491,4.491,0,0,0,50.49,25.29h8.439a.871.871,0,0,0,.864-.646A.8.8,0,0,0,59.292,23.726Zm-4.385-2.864a8.855,8.855,0,0,0,1.548,2.792H35.094a8.854,8.854,0,0,0,1.548-2.792ZM45.775,1.637a2.116,2.116,0,0,1,2.046,1.427,10.887,10.887,0,0,0-4.092,0A2.116,2.116,0,0,1,45.775,1.637ZM37.482,16.208V12.191c0-4.237,3.72-7.685,8.293-7.685s8.293,3.447,8.293,7.685v4.023a15.876,15.876,0,0,0,.374,3.01H37.108A15.887,15.887,0,0,0,37.482,16.208Zm8.293,11.181a3.066,3.066,0,0,1-2.9-2.1h5.8A3.066,3.066,0,0,1,45.775,27.389Z" transform="translate(-31.737 0)" fill="#777"/>
        <path id="Path_419" data-name="Path 419" d="M178.236,119.235a6.661,6.661,0,0,0-6.892,6.386.886.886,0,0,0,1.767,0,4.954,4.954,0,0,1,5.126-4.749.821.821,0,1,0,0-1.637Z" transform="translate(-164.199 -113.58)" fill="#777"/>
      </g>
    </g>
  </g>
</svg>
