<svg id="calendar_1_" data-name="calendar (1)" xmlns="http://www.w3.org/2000/svg" width="22.958" height="25" viewBox="0 0 22.958 25">
  <g id="Group_421" data-name="Group 421">
    <g id="Group_420" data-name="Group 420">
      <path id="Path_606" data-name="Path 606" d="M20.268,1.953H19.191V0H17.4V1.953H5.56V0H3.767V1.953H2.69A2.821,2.821,0,0,0,0,4.883V22.07A2.821,2.821,0,0,0,2.69,25H20.268a2.821,2.821,0,0,0,2.69-2.93V4.883A2.821,2.821,0,0,0,20.268,1.953Zm.9,20.117a.94.94,0,0,1-.9.977H2.69a.94.94,0,0,1-.9-.977V9.18H21.164Zm0-14.844H1.794V4.883a.94.94,0,0,1,.9-.977H3.767V5.859H5.56V3.906H17.4V5.859h1.794V3.906h1.076a.94.94,0,0,1,.9.977Z" fill="#301869"/>
    </g>
  </g>
  <g id="Group_423" data-name="Group 423" transform="translate(3.386 10.547)">
    <g id="Group_422" data-name="Group 422" transform="translate(0 0)">
      <rect id="Rectangle_431" data-name="Rectangle 431" width="2" height="2" transform="translate(-0.429 0.453)" fill="#301869"/>
    </g>
  </g>
  <g id="Group_425" data-name="Group 425" transform="translate(7.115 10.547)">
    <g id="Group_424" data-name="Group 424" transform="translate(0 0)">
      <rect id="Rectangle_432" data-name="Rectangle 432" width="2" height="2" transform="translate(-0.157 0.453)" fill="#301869"/>
    </g>
  </g>
  <g id="Group_427" data-name="Group 427" transform="translate(10.842 10.547)">
    <g id="Group_426" data-name="Group 426" transform="translate(0 0)">
      <rect id="Rectangle_433" data-name="Rectangle 433" width="2" height="2" transform="translate(0.116 0.453)" fill="#301869"/>
    </g>
  </g>
  <g id="Group_429" data-name="Group 429" transform="translate(13.638 10.547)">
    <g id="Group_428" data-name="Group 428" transform="translate(0 0)">
      <rect id="Rectangle_434" data-name="Rectangle 434" width="2" height="2" transform="translate(0.32 0.453)" fill="#301869"/>
    </g>
  </g>
  <g id="Group_431" data-name="Group 431" transform="translate(17.366 10.547)">
    <g id="Group_430" data-name="Group 430" transform="translate(0 0)">
      <rect id="Rectangle_435" data-name="Rectangle 435" width="3" height="2" transform="translate(-0.408 0.453)" fill="#301869"/>
    </g>
  </g>
  <g id="Group_433" data-name="Group 433" transform="translate(3.386 15.364)">
    <g id="Group_432" data-name="Group 432" transform="translate(0 0)">
      <rect id="Rectangle_436" data-name="Rectangle 436" width="2" height="2" transform="translate(-0.429 -0.363)" fill="#301869"/>
    </g>
  </g>
  <g id="Group_435" data-name="Group 435" transform="translate(7.115 15.364)">
    <g id="Group_434" data-name="Group 434" transform="translate(0 0)">
      <rect id="Rectangle_437" data-name="Rectangle 437" width="2" height="2" transform="translate(-0.157 -0.363)" fill="#301869"/>
    </g>
  </g>
  <g id="Group_437" data-name="Group 437" transform="translate(10.842 15.364)">
    <g id="Group_436" data-name="Group 436" transform="translate(0 0)">
      <rect id="Rectangle_438" data-name="Rectangle 438" width="2" height="2" transform="translate(0.116 -0.363)" fill="#301869"/>
    </g>
  </g>
  <g id="Group_439" data-name="Group 439" transform="translate(13.638 15.364)">
    <g id="Group_438" data-name="Group 438" transform="translate(0 0)">
      <rect id="Rectangle_439" data-name="Rectangle 439" width="2" height="2" transform="translate(0.32 -0.363)" fill="#301869"/>
    </g>
  </g>
  <g id="Group_441" data-name="Group 441" transform="translate(3.386 19.22)">
    <g id="Group_440" data-name="Group 440" transform="translate(0 0)">
      <rect id="Rectangle_440" data-name="Rectangle 440" width="2" height="2" transform="translate(-0.429 -0.219)" fill="#301869"/>
    </g>
  </g>
  <g id="Group_443" data-name="Group 443" transform="translate(7.115 19.22)">
    <g id="Group_442" data-name="Group 442" transform="translate(0 0)">
      <rect id="Rectangle_441" data-name="Rectangle 441" width="2" height="2" transform="translate(-0.157 -0.219)" fill="#301869"/>
    </g>
  </g>
  <g id="Group_445" data-name="Group 445" transform="translate(10.842 19.22)">
    <g id="Group_444" data-name="Group 444" transform="translate(0 0)">
      <rect id="Rectangle_442" data-name="Rectangle 442" width="2" height="2" transform="translate(0.116 -0.219)" fill="#301869"/>
    </g>
  </g>
  <g id="Group_447" data-name="Group 447" transform="translate(13.638 19.22)">
    <g id="Group_446" data-name="Group 446" transform="translate(0 0)">
      <rect id="Rectangle_443" data-name="Rectangle 443" width="2" height="2" transform="translate(0.32 -0.219)" fill="#301869"/>
    </g>
  </g>
  <g id="Group_449" data-name="Group 449" transform="translate(17.366 15.364)">
    <g id="Group_448" data-name="Group 448" transform="translate(0 0)">
      <rect id="Rectangle_444" data-name="Rectangle 444" width="3" height="2" transform="translate(-0.408 -0.363)" fill="#301869"/>
    </g>
  </g>
</svg>
