<svg xmlns="http://www.w3.org/2000/svg" width="31.53" height="29.03" viewBox="0 0 31.53 29.03">
  <g id="noun_Shopping_Cart_1098040" data-name="noun_Shopping Cart_1098040" transform="translate(-9.103 -30.5)">
    <g id="Group_510" data-name="Group 510" transform="translate(9.103 30.5)">
      <path id="Path_879" data-name="Path 879" d="M35.91,44.775,30.577,31.022a.833.833,0,0,0-.771-.522H27.214a.794.794,0,1,0,0,1.588h2.013l5.141,13.23a.833.833,0,0,0,.771.523,1.282,1.282,0,0,0,.278-.042A.776.776,0,0,0,35.91,44.775Z" transform="translate(-26.4 -30.5)" fill="#777"/>
      <path id="Path_880" data-name="Path 880" d="M82.318,60.972H63.555a1.454,1.454,0,1,1-.107-2.905l13.537-.9A2.935,2.935,0,0,0,79.6,55.183l3.513-10.638A.764.764,0,0,0,83,43.834a.829.829,0,0,0-.664-.334H59.314a.794.794,0,1,0,0,1.588H81.183L78.013,54.7a1.308,1.308,0,0,1-1.157.878l-13.537.9a3.043,3.043,0,0,0,.214,6.082H82.3a.8.8,0,0,0,.814-.794A.773.773,0,0,0,82.318,60.972Z" transform="translate(-51.624 -40.783)" fill="#777"/>
      <path id="Path_881" data-name="Path 881" d="M70.549,140h0a3.13,3.13,0,0,0-2.228.9,3.014,3.014,0,0,0-.921,2.174,3.172,3.172,0,0,0,6.34,0A3.168,3.168,0,0,0,70.549,140Zm0,4.556a1.514,1.514,0,0,1-1.542-1.484,1.388,1.388,0,0,1,.45-1.045,1.637,1.637,0,0,1,1.092-.439h0a1.485,1.485,0,1,1,0,2.968Z" transform="translate(-58.618 -117.115)" fill="#777"/>
      <path id="Path_882" data-name="Path 882" d="M137.57,140a3.121,3.121,0,0,0-3.17,3.072,3.014,3.014,0,0,0,.921,2.174,3.167,3.167,0,0,0,2.228.9,3.135,3.135,0,0,0,3.17-3.072h0A3.1,3.1,0,0,0,137.57,140Zm0,4.556a1.542,1.542,0,0,1-1.092-.439,1.47,1.47,0,0,1-.45-1.045,1.543,1.543,0,1,1,1.542,1.484Z" transform="translate(-111.267 -117.115)" fill="#777"/>
    </g>
  </g>
</svg>
