<svg xmlns="http://www.w3.org/2000/svg" width="22.536" height="21.55" viewBox="0 0 22.536 21.55">
  <path id="filter" d="M21.067,0H1.422A.933.933,0,0,0,.6.467a.824.824,0,0,0,.073.908l7.2,9.455.007.01a1.834,1.834,0,0,1,.4,1.138v7.709a.828.828,0,0,0,.267.61.953.953,0,0,0,.652.253,1.006,1.006,0,0,0,.362-.068l4.044-1.438a.823.823,0,0,0,.6-.806V11.978a1.834,1.834,0,0,1,.4-1.138l.007-.01,7.2-9.456A.823.823,0,0,0,21.89.467.933.933,0,0,0,21.067,0ZM13.711,10.223a2.839,2.839,0,0,0-.621,1.756v6.133L9.4,19.424V11.978a2.838,2.838,0,0,0-.621-1.756L1.791,1.043H20.7Zm0,0" transform="translate(0.024 0.5)" fill="#341d6c" stroke="#301869" stroke-width="1"/>
</svg>
