<svg xmlns="http://www.w3.org/2000/svg" width="24.44" height="25.178" viewBox="0 0 24.44 25.178">
  <path id="good" d="M24.643,10.787a1.778,1.778,0,0,0-1.1-.769,1.839,1.839,0,0,0-.092-1.847,1.784,1.784,0,0,0-1.1-.768,1.84,1.84,0,0,0-.093-1.848,1.777,1.777,0,0,0-1.1-.769,1.84,1.84,0,0,0-.092-1.847,1.777,1.777,0,0,0-2.481-.511L16.8,3.626a11.03,11.03,0,0,0-3.009-1.033,8.368,8.368,0,0,0-1.148-1.409L11.905.459A1.605,1.605,0,0,0,9.891.27a1.652,1.652,0,0,0-.454,2.268l.057.09a11.2,11.2,0,0,0-6.25,3.7A11.471,11.471,0,0,0,7.435,24.316a11.11,11.11,0,0,0,10.815-1.253,11.342,11.342,0,0,0,4.044-5.4.393.393,0,0,0-.232-.5.385.385,0,0,0-.494.235A10.562,10.562,0,0,1,17.8,22.426a10.351,10.351,0,0,1-9.373,1.43l3.141-2.109h0l2.61-1.753h0a1.077,1.077,0,0,0,.3-1.48l-.034-.053.507-.341a1.7,1.7,0,0,1,1.225-.269,2.461,2.461,0,0,0,1.774-.389l4.205-2.825a10.773,10.773,0,0,1-.142,1.1.391.391,0,0,0,.309.456.371.371,0,0,0,.071.007.388.388,0,0,0,.379-.32,11.607,11.607,0,0,0,.184-1.78l1.185-.8a1.8,1.8,0,0,0,.766-1.152,1.825,1.825,0,0,0-.262-1.364ZM16.05,4.129l-1.179.792-.232-.634a8.44,8.44,0,0,0-.331-.778,10.264,10.264,0,0,1,1.743.62ZM3.827,6.843a10.424,10.424,0,0,1,6.036-3.49A4.9,4.9,0,0,1,10.1,6.282l-.941,4.124a1.04,1.04,0,0,0-1.347-.159L5.15,12.037h0L1.3,14.619c-.021-.275-.032-.552-.032-.829A10.692,10.692,0,0,1,3.827,6.843ZM13.873,19.159a.284.284,0,0,1-.12.181h0L11.46,20.88,7.206,14.444a.383.383,0,0,0-.536-.107.4.4,0,0,0-.105.543l4.252,6.432-3.273,2.2a10.616,10.616,0,0,1-6.138-8.034L5.255,12.9l.443.67a.385.385,0,0,0,.321.173.38.38,0,0,0,.215-.066.4.4,0,0,0,.106-.543l-.44-.666L8.242,10.9a.274.274,0,0,1,.211-.041.28.28,0,0,1,.178.122l5.2,7.966a.286.286,0,0,1,.041.214Zm10.275-7.164a1.026,1.026,0,0,1-.436.656l-1.355.91h0l-4.835,3.248a1.7,1.7,0,0,1-1.225.269,2.462,2.462,0,0,0-1.774.389l-.507.341-4.26-6.524,1.1-4.824a5.7,5.7,0,0,0-.406-3.692c0-.012-.01-.023-.016-.035a5.559,5.559,0,0,0-.353-.626A.862.862,0,0,1,10.318.923a.837.837,0,0,1,1.05.1l.737.725a7.66,7.66,0,0,1,1.81,2.813l.4,1.1,0,.006,0,.008.008.018a.388.388,0,0,0,.027.048.382.382,0,0,0,.535.11l4.117-2.765a1.011,1.011,0,0,1,1.411.291A1.043,1.043,0,0,1,20.133,4.8l-.357.24h0l-.8.536,0,0-.012.009a.4.4,0,0,0-.093.531.383.383,0,0,0,.535.11l.8-.536a1,1,0,0,1,.765-.151,1.011,1.011,0,0,1,.646.442,1.038,1.038,0,0,1,.149.776,1.026,1.026,0,0,1-.436.656L20.171,8.2a.4.4,0,0,0-.109.542.382.382,0,0,0,.535.11l.179-.12.619-.415a1.011,1.011,0,0,1,1.411.291,1.043,1.043,0,0,1-.287,1.432l-.577.387-.009.006-.569.382a.4.4,0,0,0-.109.543.382.382,0,0,0,.535.11l.179-.12h0l.619-.415a1,1,0,0,1,.765-.151,1.011,1.011,0,0,1,.646.442,1.039,1.039,0,0,1,.149.776Zm0,0" transform="translate(-0.501 -0.001)"/>
</svg>
