<svg xmlns="http://www.w3.org/2000/svg" width="20" height="18.914" viewBox="0 0 20 18.914">
  <g id="heart_3_" data-name="heart (3)" transform="translate(0 -30)">
    <g id="Group_204" data-name="Group 204" transform="translate(0 30)">
      <path id="Path_467" data-name="Path 467" d="M14.687,30a4.539,4.539,0,0,0-2.957,1.1A7.136,7.136,0,0,0,10,33.324,7.136,7.136,0,0,0,8.27,31.1,4.539,4.539,0,0,0,5.312,30C2.284,30,0,32.654,0,36.173c0,3.8,2.849,6.4,7.163,10.341.733.669,1.563,1.427,2.426,2.235a.594.594,0,0,0,.823,0c.863-.809,1.693-1.566,2.426-2.236C17.151,42.576,20,39.975,20,36.173,20,32.654,17.716,30,14.687,30Z" transform="translate(0 -30)"/>
    </g>
  </g>
</svg>
