<svg xmlns="http://www.w3.org/2000/svg" width="43.688" height="39.001" viewBox="0 0 43.688 39.001">
  <g id="noun_Home_1706883" transform="translate(-9.416 -17.499)">
    <g id="Group_508" data-name="Group 508" transform="translate(10 17.999)">
      <path id="Path_877" data-name="Path 877" d="M31.221,970.362a1.065,1.065,0,0,0-.631.241L10.4,988.416a1.33,1.33,0,0,0-.183,1.688,1.035,1.035,0,0,0,1.511.186l19.523-17.219L50.778,990.29a1.019,1.019,0,0,0,1.494-.186,1.321,1.321,0,0,0-.166-1.688L31.919,970.6A1.126,1.126,0,0,0,31.221,970.362ZM17.973,986.338l-2.125,1.874v18.963a1.13,1.13,0,0,0,1.062,1.188h9.562a1.13,1.13,0,0,0,1.062-1.187V996.487h7.437v10.688a1.13,1.13,0,0,0,1.063,1.188H45.6a1.13,1.13,0,0,0,1.062-1.187V988.212l-2.125-1.874v19.65H37.1V995.3a1.13,1.13,0,0,0-1.062-1.187H26.473a1.13,1.13,0,0,0-1.062,1.187v10.688H17.973Z" transform="translate(-10 -970.362)" fill="#777" stroke="#fff" stroke-width="1"/>
    </g>
  </g>
</svg>
