<svg id="Group_419" data-name="Group 419" xmlns="http://www.w3.org/2000/svg" width="19" height="21.14" viewBox="0 0 19 21.14">
  <g id="Group_418" data-name="Group 418">
    <path id="Path_588" data-name="Path 588" d="M23.444,1.028a.6.6,0,0,0-.512-.587h0L18.453,0a.577.577,0,0,0-.606.5l-.326,1.785-1.633.357a.6.6,0,0,0-.444.486l-.327,1.785-1.633.357a.586.586,0,0,0-.424.4l-.669,2.1A5.871,5.871,0,0,0,6.268,9.505a7.282,7.282,0,0,0,0,9.638,5.938,5.938,0,0,0,4.408,2c3.447,0,6.234-3.056,6.234-6.815a7.418,7.418,0,0,0-.3-2.1L23.277,5a.65.65,0,0,0,.168-.44v-3.5C23.445,1.047,23.444,1.038,23.444,1.028ZM10.676,19.9a4.858,4.858,0,0,1-3.606-1.633,5.958,5.958,0,0,1,0-7.886,4.879,4.879,0,0,1,3.6-1.629,4.732,4.732,0,0,1,1.864.385.555.555,0,0,0,.742-.374l.746-2.35,1.685-.368a.6.6,0,0,0,.445-.486l.327-1.786,1.633-.357a.6.6,0,0,0,.444-.486l.3-1.645,2.756.27L14.284,9.5a.661.661,0,0,0,0,.878C17.472,13.868,15.222,19.9,10.676,19.9ZM22.312,4.3,16.123,11a6.856,6.856,0,0,0-.655-1.039l6.844-7.42Z" transform="translate(-4.445 0)"/>
  </g>
</svg>
