<svg xmlns="http://www.w3.org/2000/svg" width="21.662" height="26.479" viewBox="0 0 21.662 26.479">
  <g id="Group_534" data-name="Group 534" transform="translate(-76)">
    <g id="Group_210" data-name="Group 210" transform="translate(76)">
      <g id="Group_209" data-name="Group 209">
        <path id="Path_469" data-name="Path 469" d="M86.831,0C80.859,0,76,4.176,76,9.309a8.346,8.346,0,0,0,1.617,4.9l8.6,11.908a.944.944,0,0,0,.767.367h.007a.94.94,0,0,0,.767-.377l8.379-12.023a8.334,8.334,0,0,0,1.528-4.769C97.662,4.176,92.8,0,86.831,0Zm7.754,13.282L86.968,24.213,79.151,13.386a6.965,6.965,0,0,1-1.358-4.078c0-4.277,4.061-7.768,9.038-7.768s9.032,3.49,9.032,7.768A6.949,6.949,0,0,1,94.585,13.282Z" transform="translate(-76)" fill="#301869"/>
      </g>
    </g>
    <g id="Group_212" data-name="Group 212" transform="translate(81.416 4.654)">
      <g id="Group_211" data-name="Group 211">
        <path id="Path_470" data-name="Path 470" d="M171.415,90C168.429,90,166,92.088,166,94.654c0,2.55,2.39,4.654,5.415,4.654,3.063,0,5.415-2.132,5.415-4.654C176.831,92.088,174.4,90,171.415,90Zm0,7.768a3.148,3.148,0,1,1,3.616-3.113A3.4,3.4,0,0,1,171.415,97.768Z" transform="translate(-166 -90)" fill="#301869"/>
      </g>
    </g>
  </g>
</svg>
