<svg xmlns="http://www.w3.org/2000/svg" width="24" height="23.94" viewBox="0 0 24 23.94">
  <g id="logout_1_" data-name="logout (1)" transform="translate(0.25 0.242)">
    <path id="Path_601" data-name="Path 601" d="M287.343,209.473h-9.278a.733.733,0,0,1,0-1.465h9.278a.733.733,0,0,1,0,1.465Zm0,0" transform="translate(-264.636 -198.477)" stroke="#fff" stroke-width="0.5"/>
    <path id="Path_602" data-name="Path 602" d="M400.736,136.762a.733.733,0,0,1-.518-1.251l3.145-3.145-3.145-3.145a.733.733,0,1,1,1.036-1.036l3.663,3.663a.733.733,0,0,1,0,1.036l-3.663,3.662A.728.728,0,0,1,400.736,136.762Zm0,0" transform="translate(-381.692 -122.104)" stroke="#fff" stroke-width="0.5"/>
    <path id="Path_603" data-name="Path 603" d="M7.813,23.448a2.013,2.013,0,0,1-.606-.091L1.33,21.4A1.971,1.971,0,0,1,0,19.541V1.961A1.955,1.955,0,0,1,1.953.008,2.014,2.014,0,0,1,2.559.1L8.436,2.057a1.971,1.971,0,0,1,1.33,1.858v17.58a1.955,1.955,0,0,1-1.953,1.953ZM1.953,1.473a.49.49,0,0,0-.488.488v17.58a.508.508,0,0,0,.339.471l5.85,1.949a.531.531,0,0,0,.159.021.49.49,0,0,0,.488-.488V3.915a.508.508,0,0,0-.339-.471L2.112,1.494a.53.53,0,0,0-.159-.021Zm0,0" transform="translate(0 0)" stroke="#fff" stroke-width="0.5"/>
    <path id="Path_604" data-name="Path 604" d="M40.341,7.821a.733.733,0,0,1-.733-.733V2.694a1.222,1.222,0,0,0-1.221-1.221H27.4a.732.732,0,1,1,0-1.465H38.388a2.688,2.688,0,0,1,2.686,2.686V7.089A.733.733,0,0,1,40.341,7.821Zm0,0" transform="translate(-25.447)" stroke="#fff" stroke-width="0.5"/>
    <path id="Path_605" data-name="Path 605" d="M185.971,285.153h-3.907a.732.732,0,1,1,0-1.465h3.907a1.222,1.222,0,0,0,1.221-1.221v-4.4a.732.732,0,0,1,1.465,0v4.4A2.688,2.688,0,0,1,185.971,285.153Zm0,0" transform="translate(-173.031 -264.635)" stroke="#fff" stroke-width="0.5"/>
  </g>
</svg>
