<svg xmlns="http://www.w3.org/2000/svg" width="22.44" height="23.97" viewBox="0 0 22.44 23.97">
  <g id="privacy-policy" transform="translate(-25.416 -5)">
    <path id="Path_589" data-name="Path 589" d="M59.465,50.473h7.951a.287.287,0,1,0,0-.573H59.465a.287.287,0,1,0,0,.573Z" transform="translate(-32.114 -42.756)"/>
    <path id="Path_590" data-name="Path 590" d="M58.243,413.906H50.292a.287.287,0,1,0,0,.573h7.951a.287.287,0,1,0,0-.573Z" transform="translate(-23.388 -389.381)"/>
    <path id="Path_591" data-name="Path 591" d="M58.243,368.405H50.292a.287.287,0,1,0,0,.573h7.951a.287.287,0,1,0,0-.573Z" transform="translate(-23.388 -346.053)"/>
    <path id="Path_592" data-name="Path 592" d="M53.942,95.973h15.9a.287.287,0,1,0,0-.573h-15.9a.287.287,0,1,0,0,.573Z" transform="translate(-26.86 -86.084)"/>
    <path id="Path_593" data-name="Path 593" d="M53.942,141.473h15.9a.287.287,0,1,0,0-.573h-15.9a.287.287,0,1,0,0,.573Z" transform="translate(-26.86 -129.411)"/>
    <path id="Path_594" data-name="Path 594" d="M53.942,186.973h15.9a.287.287,0,1,0,0-.573h-15.9a.287.287,0,1,0,0,.573Z" transform="translate(-26.86 -172.738)"/>
    <path id="Path_595" data-name="Path 595" d="M53.942,232.473h15.9a.287.287,0,1,0,0-.573h-15.9a.287.287,0,1,0,0,.573Z" transform="translate(-26.86 -216.066)"/>
    <path id="Path_596" data-name="Path 596" d="M53.942,277.973h15.9a.287.287,0,1,0,0-.573h-15.9a.287.287,0,1,0,0,.573Z" transform="translate(-26.86 -259.393)"/>
    <path id="Path_597" data-name="Path 597" d="M53.942,323.473H66.026a.287.287,0,1,0,0-.573H53.942a.287.287,0,1,0,0,.573Z" transform="translate(-26.86 -302.721)"/>
    <path id="Path_598" data-name="Path 598" d="M44.595,20.643V6.254A1.272,1.272,0,0,0,43.309,5H26.7a1.272,1.272,0,0,0-1.286,1.254v20.6A1.272,1.272,0,0,0,26.7,28.108H40.655a4.639,4.639,0,0,0,2.71.862,4.378,4.378,0,0,0,4.491-4.244A4.3,4.3,0,0,0,44.595,20.643ZM26,26.854V6.254a.693.693,0,0,1,.7-.681H43.309a.693.693,0,0,1,.7.681V20.526a4.765,4.765,0,0,0-.646-.044,4.378,4.378,0,0,0-4.491,4.244A4.1,4.1,0,0,0,40,27.535H26.7a.693.693,0,0,1-.7-.681ZM43.365,28.4a3.8,3.8,0,0,1-3.907-3.671,3.914,3.914,0,0,1,7.814,0A3.8,3.8,0,0,1,43.365,28.4Z" transform="translate(0 0)"/>
    <path id="Path_599" data-name="Path 599" d="M358.8,372.963h-.037v-.438a.986.986,0,0,0-.942-1.023h-1.111a.986.986,0,0,0-.942,1.023v.438h-.037a.386.386,0,0,0-.389.382v2.347a.386.386,0,0,0,.389.382H358.8a.386.386,0,0,0,.389-.382v-2.347A.386.386,0,0,0,358.8,372.963Zm-2.448-.438a.418.418,0,0,1,.358-.45h1.111a.418.418,0,0,1,.358.45v.438h-1.827Zm2.253,2.975h-2.679v-1.965h2.679Z" transform="translate(-313.875 -349.002)"/>
    <path id="Path_600" data-name="Path 600" d="M388.971,426.843a.292.292,0,0,0,.584,0v-.295a.37.37,0,0,0,.1-.249.389.389,0,0,0-.779,0,.37.37,0,0,0,.1.249Z" transform="translate(-345.772 -400.819)"/>
  </g>
</svg>
