<svg xmlns="http://www.w3.org/2000/svg" width="42.5" height="38.553" viewBox="0 0 42.5 38.553">
  <g id="noun_School_1343372" transform="translate(-10 -10)">
    <path id="Path_867" data-name="Path 867" d="M10.531,48.553H51.969a.484.484,0,1,0,0-.964H49.711V24.919a.508.508,0,0,0-.531-.482H42.452v-2.63a.477.477,0,0,0-.266-.418l-10.339-5.4v-1.83H36.3a.508.508,0,0,0,.531-.482V10.482A.508.508,0,0,0,36.3,10h-4.98a.508.508,0,0,0-.531.482v5.5l-10.469,5.4a.477.477,0,0,0-.269.419v2.63H13.32a.508.508,0,0,0-.531.482v22.67H10.531a.484.484,0,1,0,0,.964ZM36.7,47.589H31.848v-10.2H36.7Zm-5.91,0H25.8v-10.2h4.98Zm4.98-34.4H31.848V10.964h3.918ZM13.852,25.4h6.727a.508.508,0,0,0,.531-.482V22.088l10.2-5.267L41.39,22.086v2.833a.508.508,0,0,0,.531.482h6.727V47.589H37.758V36.907a.508.508,0,0,0-.531-.482H25.273a.508.508,0,0,0-.531.482V47.589H13.852Z" transform="translate(0 0)" fill="#777"/>
    <path id="Path_868" data-name="Path 868" d="M27.706,64.847H22.992a.508.508,0,0,0-.531.482v4.455a.508.508,0,0,0,.531.482h4.713a.508.508,0,0,0,.531-.482V65.329A.508.508,0,0,0,27.706,64.847ZM27.174,69.3H23.524V65.811h3.651Z" transform="translate(-5.841 -28.416)" fill="#777"/>
    <path id="Path_869" data-name="Path 869" d="M27.706,50.667H22.992a.508.508,0,0,0-.531.482V55.6a.508.508,0,0,0,.531.482h4.713a.508.508,0,0,0,.531-.482V51.149A.508.508,0,0,0,27.706,50.667Zm-.531,4.455H23.524V51.631h3.651Z" transform="translate(-5.841 -21.069)" fill="#777"/>
    <path id="Path_870" data-name="Path 870" d="M67.325,70.266h4.714a.508.508,0,0,0,.531-.482V65.329a.508.508,0,0,0-.531-.482H67.325a.508.508,0,0,0-.531.482v4.455A.508.508,0,0,0,67.325,70.266Zm.531-4.455h3.651V69.3H67.856Z" transform="translate(-26.622 -28.416)" fill="#777"/>
    <path id="Path_871" data-name="Path 871" d="M67.325,56.086h4.714a.508.508,0,0,0,.531-.482V51.149a.508.508,0,0,0-.531-.482H67.325a.508.508,0,0,0-.531.482V55.6A.508.508,0,0,0,67.325,56.086Zm.531-4.455h3.651v3.491H67.856Z" transform="translate(-26.622 -21.069)" fill="#777"/>
    <path id="Path_872" data-name="Path 872" d="M38.281,56.086h4.713a.508.508,0,0,0,.531-.482V51.149a.508.508,0,0,0-.531-.482H38.281a.508.508,0,0,0-.531.482V55.6A.508.508,0,0,0,38.281,56.086Zm.531-4.455h3.651v3.491H38.813Z" transform="translate(-13.008 -21.069)" fill="#777"/>
    <path id="Path_873" data-name="Path 873" d="M51.378,51.149V55.6a.508.508,0,0,0,.531.482h4.713a.508.508,0,0,0,.531-.482V51.149a.508.508,0,0,0-.531-.482H51.909A.508.508,0,0,0,51.378,51.149Zm1.063.482h3.651v3.491H52.44Z" transform="translate(-19.396 -21.069)" fill="#777"/>
    <path id="Path_874" data-name="Path 874" d="M46.579,38.129a3.714,3.714,0,0,0,3.877-3.516,3.9,3.9,0,0,0-7.754,0A3.714,3.714,0,0,0,46.579,38.129Zm0-6.07a2.565,2.565,0,1,1-2.815,2.553A2.7,2.7,0,0,1,46.579,32.06Z" transform="translate(-15.329 -10.93)" fill="#777"/>
  </g>
</svg>
