<svg xmlns="http://www.w3.org/2000/svg" width="15.848" height="16.544" viewBox="0 0 15.848 16.544">
  <g id="trash_1_" data-name="trash (1)" transform="translate(0)">
    <path id="Path_500" data-name="Path 500" d="M126.694,1h3.4v.465h1.23V.934A1.059,1.059,0,0,0,130.18,0h-3.566a1.059,1.059,0,0,0-1.149.934v.53h1.23Zm0,0" transform="translate(-120.472 0)" fill="red"/>
    <path id="Path_501" data-name="Path 501" d="M52.575,167.75H41.032a.488.488,0,0,0-.54.475l.965,9.691a1.205,1.205,0,0,0,1.277.958h8.138a1.205,1.205,0,0,0,1.277-.958l.965-9.691a.488.488,0,0,0-.54-.475Zm-8.748,10.09h-.039a.575.575,0,0,1-.613-.469l-.6-7.956a.549.549,0,0,1,.576-.529.585.585,0,0,1,.652.468l.6,7.956A.549.549,0,0,1,43.827,177.84Zm3.6-.5a.628.628,0,0,1-1.23,0v-7.956a.628.628,0,0,1,1.23,0Zm3.611-7.926-.577,7.956a.575.575,0,0,1-.613.47h-.037a.55.55,0,0,1-.578-.528l.577-7.956a.582.582,0,0,1,.65-.469.55.55,0,0,1,.578.528Zm0,0" transform="translate(-38.879 -162.33)" fill="red"/>
    <path id="Path_502" data-name="Path 502" d="M15.822,77.628l-.4-.983a.786.786,0,0,0-.742-.434H1.172a.786.786,0,0,0-.742.434l-.4.983a.378.378,0,0,0,.213.479.591.591,0,0,0,.269.063H15.341a.588.588,0,0,0,.269-.063.378.378,0,0,0,.213-.479Zm0,0" transform="translate(0 -73.749)" fill="red"/>
  </g>
</svg>
